<svg xmlns="http://www.w3.org/2000/svg" width="960" height="640" viewBox="0 0 960 640">
  <defs>
    <linearGradient id="wall" x1="0" y1="0" x2="1" y2="1">
      <stop offset="0" stop-color="#e0f2fe"/>
      <stop offset="1" stop-color="#ecfdf5"/>
    </linearGradient>
  </defs>

  <rect width="960" height="640" rx="38" fill="url(#wall)"/>
  <rect y="440" width="960" height="200" fill="#d6d3d1"/>

  <rect x="92" y="100" width="776" height="388" rx="28" fill="#ffffff" opacity=".94"/>

  <rect x="150" y="260" width="275" height="34" rx="8" fill="#92400e"/>
  <rect x="175" y="294" width="20" height="145" fill="#78350f"/>
  <rect x="380" y="294" width="20" height="145" fill="#78350f"/>

  <rect x="198" y="165" width="180" height="115" rx="12" fill="#1e293b"/>
  <rect x="212" y="179" width="152" height="82" rx="6" fill="#38bdf8"/>
  <rect x="270" y="280" width="35" height="25" fill="#64748b"/>

  <rect x="525" y="260" width="275" height="34" rx="8" fill="#92400e"/>
  <rect x="550" y="294" width="20" height="145" fill="#78350f"/>
  <rect x="755" y="294" width="20" height="145" fill="#78350f"/>

  <rect x="573" y="165" width="180" height="115" rx="12" fill="#1e293b"/>
  <rect x="587" y="179" width="152" height="82" rx="6" fill="#34d399"/>
  <rect x="645" y="280" width="35" height="25" fill="#64748b"/>

  <rect x="432" y="190" width="85" height="190" rx="15" fill="#475569"/>
  <circle cx="474" cy="228" r="20" fill="#0f172a"/>
  <rect x="451" y="272" width="46" height="12" rx="6" fill="#94a3b8"/>
  <rect x="451" y="300" width="46" height="12" rx="6" fill="#94a3b8"/>

  <text x="480" y="560" text-anchor="middle" font-family="Arial, sans-serif" font-size="19" font-weight="700" fill="#334155">
    Equipamentos da empresa enviados pelo cliente
  </text>
</svg>
