<svg xmlns="http://www.w3.org/2000/svg" width="960" height="640" viewBox="0 0 960 640">
  <defs>
    <linearGradient id="background" x1="0" y1="0" x2="1" y2="1">
      <stop offset="0" stop-color="#eff6ff"/>
      <stop offset="1" stop-color="#d1fae5"/>
    </linearGradient>

    <linearGradient id="screen" x1="0" y1="0" x2="1" y2="1">
      <stop offset="0" stop-color="#0f172a"/>
      <stop offset="1" stop-color="#1e3a8a"/>
    </linearGradient>
  </defs>

  <rect width="960" height="640" rx="38" fill="url(#background)"/>

  <circle cx="170" cy="115" r="115" fill="#bfdbfe" opacity=".45"/>
  <circle cx="835" cy="520" r="145" fill="#a7f3d0" opacity=".45"/>

  <rect x="140" y="82" width="680" height="474" rx="32" fill="#ffffff" opacity=".96"/>

  <rect x="250" y="145" width="460" height="285" rx="20" fill="#1e293b"/>
  <rect x="273" y="168" width="414" height="239" rx="10" fill="url(#screen)"/>

  <circle cx="480" cy="156" r="5" fill="#64748b"/>

  <rect x="310" y="215" width="175" height="26" rx="13" fill="#60a5fa"/>
  <rect x="310" y="260" width="290" height="15" rx="7" fill="#ffffff" opacity=".9"/>
  <rect x="310" y="290" width="245" height="15" rx="7" fill="#ffffff" opacity=".58"/>

  <rect x="310" y="335" width="112" height="38" rx="19" fill="#10b981"/>
  <text x="338" y="360" font-family="Arial, sans-serif" font-size="15" font-weight="700" fill="#ffffff">
    Estudar
  </text>

  <path d="M215 430h530l72 76c8 9 2 23-10 23H153c-12 0-18-14-10-23l72-76Z" fill="#cbd5e1"/>
  <rect x="390" y="457" width="180" height="38" rx="10" fill="#94a3b8"/>

  <text x="480" y="585" text-anchor="middle" font-family="Arial, sans-serif" font-size="19" font-weight="700" fill="#334155">
    Notebook de referência enviado pela cliente
  </text>
</svg>
