<svg xmlns="http://www.w3.org/2000/svg" width="900" height="560" viewBox="0 0 900 560">
  <defs>
    <linearGradient id="bg" x1="0" y1="0" x2="1" y2="1">
      <stop offset="0" stop-color="#eff6ff"/>
      <stop offset="1" stop-color="#dbeafe"/>
    </linearGradient>
    <linearGradient id="box" x1="0" y1="0" x2="1" y2="1">
      <stop offset="0" stop-color="#2563eb"/>
      <stop offset="1" stop-color="#0f766e"/>
    </linearGradient>
  </defs>

  <rect width="900" height="560" rx="36" fill="url(#bg)"/>

  <circle cx="755" cy="105" r="120" fill="#bfdbfe" opacity=".55"/>
  <circle cx="125" cy="475" r="150" fill="#a7f3d0" opacity=".45"/>

  <rect x="100" y="82" width="700" height="396" rx="30" fill="#ffffff"/>
  <rect x="145" y="125" width="280" height="310" rx="25" fill="url(#box)"/>

  <rect x="195" y="175" width="180" height="150" rx="22" fill="#ffffff" opacity=".95"/>
  <path d="M240 250h90M285 205v90" stroke="#2563eb" stroke-width="18" stroke-linecap="round"/>

  <text x="475" y="175" font-family="Arial, sans-serif" font-size="26" font-weight="700" fill="#0f172a">
    Solução Essencial
  </text>

  <text x="475" y="220" font-family="Arial, sans-serif" font-size="18" fill="#475569">
    Plano demonstrativo
  </text>

  <rect x="475" y="260" width="235" height="44" rx="22" fill="#dcfce7"/>
  <text x="500" y="289" font-family="Arial, sans-serif" font-size="17" font-weight="700" fill="#166534">
    Implantação rápida
  </text>

  <rect x="475" y="325" width="195" height="44" rx="22" fill="#dbeafe"/>
  <text x="500" y="354" font-family="Arial, sans-serif" font-size="17" font-weight="700" fill="#1d4ed8">
    Suporte incluso
  </text>

  <text x="475" y="415" font-family="Arial, sans-serif" font-size="16" fill="#64748b">
    Imagem fictícia para treinamento
  </text>
</svg>
